<svg version="1.1"
     baseProfile="full"
     xmlns="http://www.w3.org/2000/svg"
>

  <symbol id="logo" viewBox="0 0 134 60" fill="none">
    <path d="M63.8665 44.8448V32.7178H62.1045V29.6072H67.212V44.8448H63.8665Z" fill="white"/>
    <path
      d="M68.6172 34.9042C68.6172 34.1378 68.751 33.4165 69.0298 32.7515C69.2974 32.0866 69.6878 31.5118 70.1896 31.0159C70.6914 30.5313 71.2825 30.1368 71.985 29.855C72.6764 29.5733 73.4571 29.4268 74.3046 29.4268C75.1521 29.4268 75.9327 29.562 76.6353 29.855C77.3379 30.1368 77.9401 30.52 78.4419 31.0159C78.9437 31.5005 79.3229 32.0866 79.6017 32.7515C79.8693 33.4165 80.0143 34.1378 80.0143 34.9042V39.6378C80.0143 40.4267 79.8805 41.148 79.6017 41.8017C79.334 42.4554 78.9437 43.0302 78.4419 43.5261C77.9401 44.0107 77.3379 44.3939 76.6353 44.6757C75.9327 44.9462 75.1521 45.0927 74.3046 45.0927C73.4571 45.0927 72.6764 44.9574 71.985 44.6757C71.2936 44.4052 70.6914 44.022 70.1896 43.5261C69.6878 43.0414 69.3086 42.4667 69.0298 41.8017C68.7622 41.1367 68.6172 40.4154 68.6172 39.6378V34.9042ZM76.8583 34.9267C76.8583 34.1716 76.6242 33.563 76.1446 33.1009C75.6651 32.6388 75.0518 32.4134 74.3046 32.4134C73.5574 32.4134 72.9441 32.6388 72.4645 33.1009C71.985 33.563 71.7508 34.1716 71.7508 34.9267V39.6152C71.7508 40.3704 71.985 40.979 72.4645 41.441C72.9441 41.9031 73.5574 42.1285 74.3046 42.1285C75.0518 42.1285 75.6651 41.9031 76.1446 41.441C76.6242 40.979 76.8583 40.3704 76.8583 39.6152V34.9267Z"
      fill="white"/>
    <path
      d="M81.4072 34.9042C81.4072 34.1378 81.5411 33.4165 81.8198 32.7515C82.0875 32.0866 82.4778 31.5118 82.9796 31.0159C83.4815 30.5313 84.0725 30.1368 84.7751 29.855C85.4776 29.5733 86.2471 29.4268 87.0946 29.4268C87.9422 29.4268 88.7228 29.562 89.4253 29.855C90.1279 30.1368 90.7301 30.52 91.2319 31.0159C91.7338 31.5005 92.1129 32.0866 92.3917 32.7515C92.6594 33.4165 92.8043 34.1378 92.8043 34.9042V39.6378C92.8043 40.4267 92.6705 41.148 92.3917 41.8017C92.1241 42.4554 91.7338 43.0302 91.2319 43.5261C90.7301 44.0107 90.1279 44.3939 89.4253 44.6757C88.7228 44.9462 87.9422 45.0927 87.0946 45.0927C86.2471 45.0927 85.4665 44.9574 84.7751 44.6757C84.0837 44.3939 83.4815 44.022 82.9796 43.5261C82.4778 43.0414 82.0986 42.4667 81.8198 41.8017C81.5522 41.1367 81.4072 40.4154 81.4072 39.6378V34.9042ZM89.6372 34.9267C89.6372 34.1716 89.403 33.563 88.9235 33.1009C88.444 32.6388 87.8306 32.4134 87.0835 32.4134C86.3363 32.4134 85.723 32.6388 85.2434 33.1009C84.7639 33.563 84.5297 34.1716 84.5297 34.9267V39.6152C84.5297 40.3704 84.7639 40.979 85.2434 41.441C85.723 41.9031 86.3363 42.1285 87.0835 42.1285C87.8306 42.1285 88.444 41.9031 88.9235 41.441C89.403 40.979 89.6372 40.3704 89.6372 39.6152V34.9267Z"
      fill="white"/>
    <path
      d="M98.359 41.7567H105.797V44.8448H94.0879V41.9934L101.37 32.6953H94.1102V29.6072H105.663V32.5037L98.359 41.7567Z"
      fill="white"/>
    <path
      d="M116.848 42.2188H110.927L110.068 44.8448H106.566L111.897 29.6072H116.079L121.387 44.8448H117.707L116.848 42.2188ZM113.871 33.2137L111.908 39.1758H115.822L113.871 33.2137Z"
      fill="white"/>
    <path
      d="M127.71 45.1152C126.35 45.1152 125.212 44.8109 124.298 44.2023C123.384 43.5937 122.681 42.7822 122.168 41.7791L124.856 40.1787C124.989 40.4492 125.145 40.6972 125.313 40.9338C125.491 41.1705 125.692 41.3847 125.915 41.565C126.138 41.7566 126.406 41.8918 126.696 41.9933C126.986 42.0947 127.331 42.1511 127.71 42.1511C128.469 42.1511 129.104 41.9144 129.595 41.4523C130.086 40.9902 130.331 40.3478 130.331 39.5476C130.331 38.7587 130.086 38.1388 129.606 37.688C129.127 37.2371 128.491 37.0117 127.71 37.0117C127.331 37.0117 126.997 37.0681 126.696 37.1921C126.406 37.316 126.149 37.4513 125.937 37.6203C125.725 37.7894 125.547 37.981 125.413 38.1726C125.279 38.3755 125.168 38.5558 125.09 38.7136L122.447 37.8908L123.963 29.5732H132.193V32.6163H126.205L125.748 34.9718C126.038 34.7915 126.406 34.6337 126.852 34.4872C127.287 34.3406 127.766 34.2617 128.257 34.2617C129.004 34.2617 129.695 34.3857 130.331 34.6337C130.967 34.8816 131.524 35.231 131.993 35.6931C132.461 36.1552 132.829 36.7074 133.097 37.3386C133.364 37.981 133.487 38.6798 133.487 39.4574C133.487 40.2576 133.353 41.0015 133.063 41.689C132.784 42.3765 132.394 42.9738 131.881 43.481C131.379 43.9881 130.766 44.3826 130.052 44.6756C129.372 44.9687 128.58 45.1152 127.71 45.1152Z"
      fill="white"/>
    <path
      d="M48.3661 3.20071C46.7157 0.574702 44.0839 -0.732669 39.4001 2.254C34.7164 5.24066 31.4043 14.0203 31.4043 14.0203C31.4043 14.0203 35.0732 9.06134 38.6864 6.76217C42.2996 4.463 43.8162 4.6546 44.463 5.69148C45.1098 6.72836 44.6303 8.20479 41.0171 10.504C37.4151 12.8031 31.4043 14.0203 31.4043 14.0203C31.4043 14.0203 40.6714 14.7755 45.3552 11.7775C50.0277 8.79085 50.0054 5.82673 48.3661 3.20071Z"
      fill="white"/>
    <path
      d="M27.0209 7.31427C25.9057 4.62063 26.2068 3.60629 26.9651 3.29072C27.7234 2.97515 28.6379 3.47105 29.7531 6.16468C30.8682 8.85832 30.9909 13.0509 30.9909 13.0509C30.9909 13.0509 32.5298 6.87472 31.0913 3.38088C29.6527 -0.124223 27.69 -0.439796 25.7607 0.371676C23.8315 1.18315 22.6828 2.81736 24.1214 6.3112C25.56 9.81631 30.9798 13.0397 30.9798 13.0397C30.9798 13.0397 28.1249 10.0079 27.0209 7.31427Z"
      fill="white"/>
    <path
      d="M30.645 13.4904C25.8386 11.3603 21.8351 6.66051 17.1848 4.0345C16.3596 3.57241 15.3225 3.66257 15.1552 4.21483L14.6645 5.74761C14.5307 6.18715 15.0214 6.7394 15.7797 6.97608C20.9095 8.58776 25.2922 12.555 30.5335 13.7947C30.6785 13.8285 30.8011 13.7947 30.8235 13.7045C30.8458 13.6369 30.7788 13.5468 30.645 13.4904Z"
      fill="white"/>
    <path
      d="M45.1875 48.6092C44.5073 49.3418 44.2062 49.7926 43.6486 50.5815C43.0798 50.5365 42.2769 50.4463 41.6301 50.3449C40.5038 50.1645 39.5224 49.849 38.3961 49.5221C38.2623 49.6574 38.0058 49.8377 37.9277 50.142C37.6266 51.4944 39.2548 51.5959 40.6376 52.0805C42.9349 52.892 43.6374 54.2557 43.3698 55.4616C42.8902 57.603 39.6005 60.2516 35.1175 59.9811L34.9502 59.1133C37.9612 59.1471 40.0577 57.7608 40.3811 56.3182C40.7045 54.8643 39.1767 54.2219 37.9723 53.602C36.9687 53.0948 35.7754 52.475 36.0431 51.2578C36.255 50.311 37.214 49.2854 38.6414 47.8315C40.9387 48.3613 41.7082 48.6656 42.7007 48.8233C43.1579 48.9022 44.0054 49.0713 44.6745 48.3951L45.1875 48.6092Z"
      fill="white"/>
    <path
      d="M13.4039 11.0561L11.5527 10.594C9.9134 10.1883 8.25179 11.2026 7.85032 12.8594L7.3931 14.7302C6.99164 16.387 7.9953 18.0663 9.63461 18.472L11.4858 18.9341C13.1251 19.3399 14.7867 18.3255 15.1882 16.6688L15.6454 14.7979C16.0357 13.1524 15.0321 11.4618 13.4039 11.0561Z"
      fill="white"/>
    <path
      d="M22.2135 13.2426L20.3623 12.7805C18.723 12.3748 17.0614 13.3891 16.6599 15.0459L16.2027 16.9168C15.8012 18.5735 16.8049 20.2528 18.4442 20.6586L20.2954 21.1206C21.9347 21.5264 23.5963 20.512 23.9978 18.8553L24.455 16.9844C24.8564 15.3389 23.8528 13.6483 22.2135 13.2426Z"
      fill="white"/>
    <path
      d="M31.025 15.4404L29.1738 14.9783C27.5345 14.5725 25.8729 15.5869 25.4714 17.2436L25.0142 19.1145C24.6127 20.7713 25.6164 22.4506 27.2557 22.8563L29.1069 23.3184C30.7462 23.7241 32.4078 22.7098 32.8093 21.053L33.2665 19.1821C33.668 17.5254 32.6643 15.8461 31.025 15.4404Z"
      fill="white"/>
    <path
      d="M39.8453 17.6266L37.9941 17.1646C36.3548 16.7588 34.6932 17.7732 34.2917 19.4299L33.8345 21.3008C33.433 22.9576 34.4367 24.6369 36.076 25.0426L37.9272 25.5047C39.5665 25.9104 41.2281 24.8961 41.6296 23.2393L42.0868 21.3684C42.4883 19.7117 41.4735 18.0324 39.8453 17.6266Z"
      fill="white"/>
    <path
      d="M48.6549 19.8132L46.8037 19.3511C45.1644 18.9453 43.5028 19.9597 43.1013 21.6164L42.6441 23.4873C42.2426 25.1441 43.2463 26.8234 44.8856 27.2291L46.7368 27.6912C48.3649 28.0969 50.0377 27.0826 50.4392 25.4258L50.8964 23.5549C51.2978 21.9095 50.2942 20.2189 48.6549 19.8132Z"
      fill="white"/>
    <path
      d="M11.1402 20.3542L9.28904 19.8921C7.64973 19.4864 5.98812 20.5007 5.58665 22.1574L5.12943 24.0283C4.72797 25.6851 5.73163 27.3644 7.37093 27.7701L9.22213 28.2322C10.8614 28.6379 12.5231 27.6236 12.9245 25.9669L13.3817 24.096C13.7832 22.4392 12.7684 20.7599 11.1402 20.3542Z"
      fill="white"/>
    <path
      d="M19.9498 22.5407L18.0986 22.0786C16.4593 21.6729 14.7977 22.6872 14.3962 24.344L13.939 26.2149C13.5375 27.8716 14.5412 29.5509 16.1805 29.9566L18.0317 30.4187C19.671 30.8245 21.3326 29.8101 21.7341 28.1534L22.1913 26.2825C22.5928 24.637 21.5891 22.9464 19.9498 22.5407Z"
      fill="white"/>
    <path
      d="M28.7721 24.7382L26.9209 24.2761C25.2816 23.8704 23.62 24.8847 23.2185 26.5415L22.7613 28.4124C22.3598 30.0691 23.3635 31.7484 25.0028 32.1542L26.854 32.6162C28.4933 33.022 30.1549 32.0076 30.5563 30.3509L31.0136 28.48C31.415 26.8232 30.4002 25.1439 28.7721 24.7382Z"
      fill="white"/>
    <path
      d="M37.5816 26.9247L35.7304 26.4626C34.0911 26.0569 32.4295 27.0713 32.0281 28.728L31.5708 30.5989C31.1694 32.2557 32.173 33.9349 33.8123 34.3407L35.6635 34.8028C37.3028 35.2085 38.9645 34.1942 39.3659 32.5374L39.8231 30.6665C40.2246 29.0098 39.2209 27.3305 37.5816 26.9247Z"
      fill="white"/>
    <path
      d="M46.4029 29.1113L44.5517 28.6492C42.9124 28.2434 41.2508 29.2578 40.8493 30.9145L40.3921 32.7854C39.9907 34.4422 40.9943 36.1215 42.6336 36.5272L44.4848 36.9893C46.1241 37.395 47.7857 36.3807 48.1872 34.7239L48.6444 32.853C49.0459 31.1963 48.0311 29.517 46.4029 29.1113Z"
      fill="white"/>
    <path
      d="M6.61289 38.9504L4.7617 38.4883C3.12239 38.0825 1.46077 39.0969 1.05931 40.7536L0.602086 42.6245C0.200622 44.2813 1.20428 45.9606 2.84359 46.3663L4.69478 46.8284C6.33409 47.2229 8.00686 46.2085 8.40832 44.5518L8.86555 42.6809C9.25586 41.0354 8.2522 39.3561 6.61289 38.9504Z"
      fill="white"/>
    <path
      d="M15.4332 41.1369L13.582 40.6748C11.9427 40.2691 10.2811 41.2834 9.87962 42.9402L9.4224 44.8111C9.02094 46.4678 10.0246 48.1471 11.6639 48.5528L13.5151 49.0149C15.1544 49.4207 16.816 48.4063 17.2175 46.7496L17.6747 44.8787C18.0762 43.2219 17.0614 41.5426 15.4332 41.1369Z"
      fill="white"/>
    <path
      d="M24.2437 43.3234L22.3926 42.8613C20.7532 42.4556 19.0916 43.4699 18.6902 45.1267L18.2329 46.9976C17.8315 48.6543 18.8351 50.3336 20.4744 50.7394L22.3256 51.2015C23.965 51.6072 25.6266 50.5928 26.028 48.9361L26.4853 47.0652C26.8867 45.4197 25.8831 43.7292 24.2437 43.3234Z"
      fill="white"/>
    <path
      d="M33.0641 45.5097L31.2129 45.0476C29.5736 44.6419 27.9119 45.6562 27.5105 47.313L27.0533 49.1839C26.6518 50.8406 27.6555 52.5199 29.2948 52.9256L31.146 53.3877C32.7853 53.7935 34.4469 52.7791 34.8483 51.1224L35.3056 49.2515C35.707 47.606 34.6922 45.9154 33.0641 45.5097Z"
      fill="white"/>
    <path
      d="M8.87754 29.6523L7.02634 29.1902C5.38703 28.7844 3.72542 29.7988 3.32396 31.4555L2.86673 33.3264C2.46527 34.9832 3.46893 36.6625 5.10824 37.0682L6.95943 37.5303C8.59874 37.936 10.2604 36.9217 10.6618 35.265L11.119 33.3941C11.5205 31.7373 10.5168 30.058 8.87754 29.6523Z"
      fill="white"/>
    <path
      d="M17.6978 31.8388L15.8467 31.3767C14.2073 30.971 12.5457 31.9853 12.1443 33.6421L11.687 35.513C11.2856 37.1697 12.2892 38.849 13.9286 39.2547L15.7797 39.7168C17.4191 40.1226 19.0807 39.1082 19.4821 37.4515L19.9394 35.5806C20.3408 33.9351 19.326 32.2445 17.6978 31.8388Z"
      fill="white"/>
    <path
      d="M26.5074 34.0253L24.6562 33.5632C23.0169 33.1575 21.3553 34.1718 20.9538 35.8286L20.4966 37.6995C20.0952 39.3562 21.0988 41.0355 22.7381 41.4413L24.5893 41.9034C26.2286 42.3091 27.8902 41.2948 28.2917 39.638L28.7489 37.7671C29.1504 36.1216 28.1467 34.4311 26.5074 34.0253Z"
      fill="white"/>
    <path
      d="M35.318 36.2231L33.4668 35.761C31.8275 35.3553 30.1658 36.3696 29.7644 38.0263L29.3072 39.8972C28.9057 41.554 29.9094 43.2333 31.5487 43.639L33.3999 44.1011C35.0392 44.5068 36.7008 43.4925 37.1022 41.8358L37.5595 39.9649C37.9609 38.3081 36.9573 36.6288 35.318 36.2231Z"
      fill="white"/>
    <path
      d="M44.1383 38.4096L42.2871 37.9475C40.6478 37.5418 38.9862 38.5561 38.5847 40.2129L38.1275 42.0838C37.726 43.7405 38.7297 45.4198 40.369 45.8255L42.2202 46.2876C43.8483 46.6934 45.5211 45.679 45.9226 44.0223L46.3798 42.1514C46.7812 40.4946 45.7664 38.8153 44.1383 38.4096Z"
      fill="white"/>
  </symbol>

  <symbol id="logo-2" viewBox="0 0 221 101" fill="none">
    <path d="M105.291 75.4343V55.2226H102.362V50.0382H110.851V75.4343H105.291Z" fill="#F2F2F2"/>
    <path
      d="M113.186 58.8664C113.186 57.589 113.408 56.3869 113.871 55.2786C114.316 54.1703 114.965 53.2124 115.799 52.3859C116.633 51.5781 117.615 50.9207 118.783 50.4511C119.932 49.9815 121.229 49.7373 122.638 49.7373C124.047 49.7373 125.344 49.9627 126.512 50.4511C127.679 50.9207 128.68 51.5594 129.514 52.3859C130.348 53.1936 130.978 54.1703 131.442 55.2786C131.887 56.3869 132.127 57.589 132.127 58.8664V66.7557C132.127 68.0705 131.905 69.2727 131.442 70.3622C130.997 71.4517 130.348 72.4097 129.514 73.2362C128.68 74.0439 127.679 74.6825 126.512 75.1521C125.344 75.6029 124.047 75.8471 122.638 75.8471C121.229 75.8471 119.932 75.6217 118.783 75.1521C117.634 74.7013 116.633 74.0627 115.799 73.2362C114.965 72.4284 114.335 71.4705 113.871 70.3622C113.426 69.2539 113.186 68.0518 113.186 66.7557V58.8664ZM126.882 58.9039C126.882 57.6454 126.493 56.6311 125.696 55.8609C124.899 55.0908 123.88 54.7151 122.638 54.7151C121.396 54.7151 120.377 55.0908 119.58 55.8609C118.783 56.6311 118.394 57.6454 118.394 58.9039V66.7181C118.394 67.9766 118.783 68.991 119.58 69.7611C120.377 70.5313 121.396 70.9069 122.638 70.9069C123.88 70.9069 124.899 70.5313 125.696 69.7611C126.493 68.991 126.882 67.9766 126.882 66.7181V58.9039Z"
      fill="#F2F2F2"/>
    <path
      d="M134.445 58.8664C134.445 57.589 134.668 56.3869 135.131 55.2786C135.576 54.1703 136.225 53.2124 137.059 52.3859C137.893 51.5781 138.875 50.9207 140.043 50.4511C141.21 49.9815 142.489 49.7373 143.898 49.7373C145.306 49.7373 146.604 49.9627 147.771 50.4511C148.939 50.9207 149.94 51.5594 150.774 52.3859C151.608 53.1936 152.238 54.1703 152.701 55.2786C153.146 56.3869 153.387 57.589 153.387 58.8664V66.7557C153.387 68.0705 153.165 69.2727 152.701 70.3622C152.257 71.4517 151.608 72.4097 150.774 73.2362C149.94 74.0439 148.939 74.6825 147.771 75.1521C146.604 75.6029 145.306 75.8471 143.898 75.8471C142.489 75.8471 141.192 75.6217 140.043 75.1521C138.894 74.6825 137.893 74.0627 137.059 73.2362C136.225 72.4284 135.594 71.4705 135.131 70.3622C134.686 69.2539 134.445 68.0518 134.445 66.7557V58.8664ZM148.124 58.9039C148.124 57.6454 147.734 56.6311 146.937 55.8609C146.14 55.0908 145.121 54.7151 143.879 54.7151C142.637 54.7151 141.618 55.0908 140.821 55.8609C140.024 56.6311 139.635 57.6454 139.635 58.9039V66.7181C139.635 67.9766 140.024 68.991 140.821 69.7611C141.618 70.5313 142.637 70.9069 143.879 70.9069C145.121 70.9069 146.14 70.5313 146.937 69.7611C147.734 68.991 148.124 67.9766 148.124 66.7181V58.9039Z"
      fill="#F2F2F2"/>
    <path
      d="M162.616 70.2873H174.978V75.4341H155.518V70.6818L167.62 55.1849H155.555V50.0381H174.756V54.8656L162.616 70.2873Z"
      fill="#F2F2F2"/>
    <path
      d="M193.346 71.0574H183.505L182.078 75.4341H176.258L185.117 50.0381H192.067L200.89 75.4341H194.773L193.346 71.0574ZM188.398 56.049L185.136 65.9857H191.641L188.398 56.049Z"
      fill="#F2F2F2"/>
    <path
      d="M211.399 75.8847C209.138 75.8847 207.247 75.3775 205.728 74.3632C204.208 73.3488 203.04 71.9964 202.188 70.3246L206.654 67.6572C206.877 68.1081 207.136 68.5213 207.414 68.9158C207.711 69.3102 208.044 69.6671 208.415 69.9677C208.786 70.287 209.23 70.5124 209.712 70.6815C210.194 70.8505 210.769 70.9445 211.399 70.9445C212.659 70.9445 213.716 70.55 214.531 69.7798C215.347 69.0097 215.755 67.939 215.755 66.6053C215.755 65.2905 215.347 64.2573 214.55 63.506C213.753 62.7546 212.696 62.3789 211.399 62.3789C210.769 62.3789 210.213 62.4728 209.712 62.6795C209.23 62.8861 208.804 63.1115 208.452 63.3933C208.1 63.675 207.803 63.9943 207.581 64.3137C207.359 64.6518 207.173 64.9523 207.043 65.2153L202.651 63.8441L205.172 49.9814H218.85V55.0531H208.897L208.137 58.979C208.619 58.6785 209.23 58.4155 209.972 58.1713C210.695 57.9271 211.492 57.7956 212.307 57.7956C213.549 57.7956 214.698 58.0022 215.755 58.4155C216.811 58.8287 217.738 59.411 218.516 60.1812C219.295 60.9513 219.906 61.8718 220.351 62.9237C220.796 63.9944 221 65.159 221 66.4551C221 67.7887 220.777 69.0285 220.295 70.1743C219.832 71.3201 219.183 72.3157 218.331 73.161C217.497 74.0063 216.477 74.6637 215.291 75.1521C214.161 75.6405 212.845 75.8847 211.399 75.8847Z"
      fill="#F2F2F2"/>
    <path
      d="M79.5293 6.02642C76.7863 1.64973 72.4122 -0.529219 64.6279 4.44856C56.8435 9.42633 51.3389 24.0591 51.3389 24.0591C51.3389 24.0591 57.4366 15.7941 63.4417 11.9622C69.4468 8.13023 71.9674 8.44956 73.0424 10.1777C74.1174 11.9058 73.3204 14.3665 67.3153 18.1985C61.3288 22.0304 51.3389 24.0591 51.3389 24.0591C51.3389 24.0591 66.7408 25.3176 74.5251 20.3211C82.2909 15.3433 82.2539 10.4031 79.5293 6.02642Z"
      fill="#F2F2F2"/>
    <path
      d="M44.0544 12.8829C42.2009 8.39351 42.7014 6.70295 43.9617 6.17699C45.222 5.65104 46.7418 6.47754 48.5952 10.9669C50.4486 15.4563 50.6525 22.444 50.6525 22.444C50.6525 22.444 53.2102 12.1503 50.8193 6.32727C48.4284 0.485426 45.1664 -0.040528 41.96 1.31192C38.7536 2.66438 36.8446 5.38806 39.2355 11.2111C41.6264 17.053 50.634 22.4252 50.634 22.4252C50.634 22.4252 45.8892 17.3723 44.0544 12.8829Z"
      fill="#F2F2F2"/>
    <path
      d="M50.0784 23.1764C42.0902 19.6262 35.4364 11.7932 27.7077 7.41655C26.3361 6.6464 24.6124 6.79667 24.3344 7.71709L23.5189 10.2717C23.2965 11.0043 24.112 11.9247 25.3723 12.3192C33.8981 15.0053 41.182 21.6173 49.8931 23.6835C50.134 23.7399 50.3379 23.6835 50.3749 23.5333C50.412 23.4206 50.3008 23.2703 50.0784 23.1764Z"
      fill="#F2F2F2"/>
    <path
      d="M74.2458 81.708C73.1152 82.9289 72.6148 83.6803 71.6881 84.9952C70.7429 84.92 69.4084 84.7698 68.3334 84.6007C66.4615 84.3002 64.8305 83.7742 62.9585 83.2295C62.7361 83.4549 62.3098 83.7554 62.1801 84.2626C61.6796 86.5167 64.3856 86.6857 66.6839 87.4935C70.5019 88.8459 71.6696 91.1188 71.2247 93.1287C70.4278 96.6976 64.9602 101.112 57.5095 100.661L57.2314 99.2147C62.2357 99.2711 65.7201 96.9606 66.2576 94.5563C66.7951 92.1331 64.2559 91.0624 62.2542 90.0293C60.5861 89.184 58.603 88.1509 59.0478 86.1222C59.3999 84.5444 60.9939 82.835 63.3663 80.4119C67.1843 81.2947 68.4632 81.8019 70.1127 82.0649C70.8726 82.1964 72.2812 82.4781 73.3932 81.3511L74.2458 81.708Z"
      fill="#F2F2F2"/>
    <path
      d="M21.4249 19.1198L18.3483 18.3496C15.6238 17.6734 12.8622 19.3639 12.1949 22.1252L11.435 25.2434C10.7678 28.0046 12.4359 30.8034 15.1604 31.4797L18.2371 32.2498C20.9616 32.926 23.7232 31.2355 24.3904 28.4742L25.1503 25.3561C25.799 22.6136 24.1309 19.796 21.4249 19.1198Z"
      fill="#F2F2F2"/>
    <path
      d="M36.0646 22.7628L32.9879 21.9927C30.2634 21.3164 27.5018 23.007 26.8346 25.7683L26.0747 28.8864C25.4074 31.6477 27.0755 34.4465 29.8 35.1227L32.8767 35.8929C35.6012 36.5691 38.3628 34.8785 39.0301 32.1173L39.79 28.9991C40.4572 26.2567 38.7891 23.439 36.0646 22.7628Z"
      fill="#F2F2F2"/>
    <path
      d="M50.7082 26.4259L47.6315 25.6558C44.907 24.9795 42.1454 26.6701 41.4781 29.4314L40.7182 32.5495C40.051 35.3108 41.7191 38.1096 44.4436 38.7858L47.5203 39.556C50.2448 40.2322 53.0064 38.5416 53.6736 35.7804L54.4335 32.6622C55.1008 29.901 53.4327 27.1021 50.7082 26.4259Z"
      fill="#F2F2F2"/>
    <path
      d="M65.3683 30.0704L62.2916 29.3003C59.5671 28.6241 56.8055 30.3146 56.1383 33.0759L55.3784 36.194C54.7112 38.9553 56.3792 41.7541 59.1038 42.4303L62.1804 43.2005C64.905 43.8767 67.6665 42.1862 68.3338 39.4249L69.0937 36.3067C69.7609 33.5455 68.0743 30.7467 65.3683 30.0704Z"
      fill="#F2F2F2"/>
    <path
      d="M80.0099 33.7145L76.9332 32.9443C74.2087 32.2681 71.4471 33.9587 70.7799 36.7199L70.02 39.8381C69.3528 42.5993 71.0208 45.3982 73.7454 46.0744L76.822 46.8445C79.528 47.5208 82.3081 45.8302 82.9754 43.0689L83.7353 39.9508C84.4025 37.2083 82.7344 34.3907 80.0099 33.7145Z"
      fill="#F2F2F2"/>
    <path
      d="M17.6613 34.6158L14.5846 33.8457C11.8601 33.1695 9.09849 34.86 8.43126 37.6213L7.67136 40.7395C7.00413 43.5007 8.6722 46.2995 11.3967 46.9758L14.4734 47.7459C17.1979 48.4221 19.9595 46.7316 20.6267 43.9703L21.3866 40.8522C22.0539 38.0909 20.3673 35.2921 17.6613 34.6158Z"
      fill="#F2F2F2"/>
    <path
      d="M32.3029 38.2601L29.2262 37.49C26.5017 36.8138 23.7401 38.5043 23.0729 41.2656L22.313 44.3837C21.6457 47.145 23.3138 49.9438 26.0383 50.62L29.115 51.3902C31.8395 52.0664 34.6011 50.3759 35.2683 47.6146L36.0282 44.4964C36.6955 41.754 35.0274 38.9364 32.3029 38.2601Z"
      fill="#F2F2F2"/>
    <path
      d="M46.965 41.9227L43.8883 41.1526C41.1638 40.4764 38.4022 42.1669 37.735 44.9282L36.9751 48.0463C36.3078 50.8076 37.9759 53.6064 40.7004 54.2826L43.7771 55.0528C46.5016 55.729 49.2632 54.0384 49.9305 51.2772L50.6904 48.159C51.3576 45.3978 49.671 42.599 46.965 41.9227Z"
      fill="#F2F2F2"/>
    <path
      d="M61.6056 45.5668L58.5289 44.7966C55.8044 44.1204 53.0428 45.811 52.3756 48.5722L51.6157 51.6904C50.9485 54.4516 52.6165 57.2505 55.3411 57.9267L58.4177 58.6968C61.1423 59.3731 63.9039 57.6825 64.5711 54.9212L65.331 51.8031C65.9982 49.0418 64.3301 46.243 61.6056 45.5668Z"
      fill="#F2F2F2"/>
    <path
      d="M76.2677 49.2113L73.191 48.4412C70.4665 47.7649 67.7049 49.4555 67.0377 52.2168L66.2778 55.3349C65.6106 58.0962 67.2786 60.895 70.0032 61.5712L73.0798 62.3414C75.8044 63.0176 78.566 61.327 79.2332 58.5658L79.9931 55.4476C80.6603 52.6864 78.9737 49.8875 76.2677 49.2113Z"
      fill="#F2F2F2"/>
    <path
      d="M10.1369 65.6096L7.06019 64.8395C4.33567 64.1633 1.57408 65.8538 0.906845 68.6151L0.146944 71.7332C-0.520286 74.4945 1.14779 77.2933 3.87231 77.9695L6.94899 78.7397C9.67351 79.3971 12.4536 77.7066 13.1209 74.9453L13.8808 71.8271C14.5295 69.0847 12.8614 66.2858 10.1369 65.6096Z"
      fill="#F2F2F2"/>
    <path
      d="M24.797 69.2543L21.7203 68.4841C18.9958 67.8079 16.2342 69.4985 15.567 72.2597L14.8071 75.3779C14.1399 78.1391 15.8079 80.938 18.5325 81.6142L21.6091 82.3843C24.3337 83.0606 27.0953 81.37 27.7625 78.6087L28.5224 75.4906C29.1896 72.7293 27.503 69.9305 24.797 69.2543Z"
      fill="#F2F2F2"/>
    <path
      d="M39.4396 72.8983L36.3629 72.1282C33.6384 71.4519 30.8768 73.1425 30.2096 75.9038L29.4497 79.0219C28.7824 81.7832 30.4505 84.582 33.175 85.2582L36.2517 86.0284C38.9762 86.7046 41.7378 85.014 42.4051 82.2528L43.165 79.1346C43.8322 76.3922 42.1641 73.5745 39.4396 72.8983Z"
      fill="#F2F2F2"/>
    <path
      d="M54.0988 76.5419L51.0221 75.7717C48.2976 75.0955 45.536 76.7861 44.8688 79.5473L44.1089 82.6655C43.4416 85.4267 45.1097 88.2256 47.8342 88.9018L50.9109 89.6719C53.6354 90.3482 56.397 88.6576 57.0642 85.8963L57.8241 82.7782C58.4914 80.0357 56.8048 77.2181 54.0988 76.5419Z"
      fill="#F2F2F2"/>
    <path
      d="M13.8986 50.1127L10.8219 49.3425C8.09739 48.6663 5.33579 50.3569 4.66856 53.1181L3.90866 56.2363C3.24143 58.9975 4.90951 61.7964 7.63403 62.4726L10.7107 63.2427C13.4352 63.919 16.1968 62.2284 16.864 59.4671L17.624 56.349C18.2912 53.5877 16.6231 50.7889 13.8986 50.1127Z"
      fill="#F2F2F2"/>
    <path
      d="M28.5587 53.7567L25.4821 52.9866C22.7575 52.3103 19.9959 54.0009 19.3287 56.7622L18.5688 59.8803C17.9016 62.6416 19.5697 65.4404 22.2942 66.1166L25.3709 66.8868C28.0954 67.563 30.857 65.8724 31.5242 63.1112L32.2841 59.993C32.9513 57.2506 31.2647 54.4329 28.5587 53.7567Z"
      fill="#F2F2F2"/>
    <path
      d="M43.2023 57.4012L40.1256 56.6311C37.4011 55.9549 34.6395 57.6454 33.9723 60.4067L33.2124 63.5249C32.5451 66.2861 34.2132 69.0849 36.9377 69.7612L40.0144 70.5313C42.7389 71.2075 45.5005 69.517 46.1678 66.7557L46.9277 63.6376C47.5949 60.8951 45.9268 58.0775 43.2023 57.4012Z"
      fill="#F2F2F2"/>
    <path
      d="M57.8439 61.0643L54.7672 60.2942C52.0427 59.618 49.2811 61.3085 48.6139 64.0698L47.854 67.1879C47.1867 69.9492 48.8548 72.748 51.5793 73.4242L54.656 74.1944C57.3805 74.8706 60.1421 73.1801 60.8094 70.4188L61.5693 67.3006C62.2365 64.5394 60.5684 61.7406 57.8439 61.0643Z"
      fill="#F2F2F2"/>
    <path
      d="M72.504 64.7084L69.4274 63.9382C66.7029 63.262 63.9413 64.9526 63.274 67.7138L62.5141 70.832C61.8469 73.5932 63.515 76.3921 66.2395 77.0683L69.3162 77.8384C72.0222 78.5147 74.8023 76.8241 75.4695 74.0628L76.2294 70.9447C76.8966 68.1834 75.21 65.3846 72.504 64.7084Z"
      fill="#F2F2F2"/>
  </symbol>

  <symbol id="burger" viewBox="0 0 32 32" fill="none">
    <path fill-rule="evenodd" clip-rule="evenodd"
          d="M4 23.6669C4 24.4033 4.59695 25.0002 5.33333 25.0002H26.6667C27.403 25.0002 28 24.4033 28 23.6669C28 22.9305 27.403 22.3336 26.6667 22.3336H5.33333C4.59695 22.3336 4 22.9305 4 23.6669ZM4 15.6669C4 16.4033 4.59695 17.0002 5.33333 17.0002H26.6667C27.403 17.0002 28 16.4033 28 15.6669C28 14.9305 27.403 14.3336 26.6667 14.3336H5.33333C4.59695 14.3336 4 14.9305 4 15.6669ZM5.33333 7.00024C4.59695 7.00024 4 7.5972 4 8.33358C4 9.06996 4.59695 9.66691 5.33333 9.66691H26.6667C27.403 9.66691 28 9.06996 28 8.33358C28 7.5972 27.403 7.00024 26.6667 7.00024H5.33333Z"
          fill="white"/>
  </symbol>

  <symbol id="play" viewBox="0 0 12 15" fill="none">
    <path
      d="M11.5 8.36627C12.1667 7.98137 12.1667 7.01912 11.5 6.63422L1.75 1.00505C1.08333 0.620153 0.25 1.10128 0.25 1.87108V13.1294C0.25 13.8992 1.08333 14.3803 1.75 13.9954L11.5 8.36627Z"
      fill="#E0E8EB"/>
  </symbol>

  <symbol id="qr-arrow" viewBox="0 0 191 55" fill="none">
    <path
      d="M72.2217 10.1994C93.0865 7.05297 117.401 10.4272 137.019 18.1865C148.144 22.5857 158.396 29.1206 167.998 36.3104C172.971 40.0263 177.723 43.9558 182.309 48.1558C183.639 49.3802 188.156 55.5449 189.915 54.9611C195.831 52.9964 175.728 34.5877 173.415 32.7653C163.675 25.0488 153.409 17.7166 142.076 12.6909C123.068 4.24825 100.402 -1.21883 79.62 0.233361C67.5251 1.08759 55.3886 1.79947 43.5984 5.38724C38.6386 6.89638 33.8034 8.87533 29.2175 11.3099C25.9617 13.0326 22.6782 14.8692 19.658 17.0048C17.4274 18.5851 15.3492 21.7885 12.994 22.899C12.7446 18.1865 16.6516 13.0895 16.7485 8.17771C16.8594 2.34047 12.8 4.87468 10.8743 8.22042C7.82626 13.5451 5.66499 19.3397 3.26817 24.9776C1.21771 29.7898 -2.53687 35.4277 2.54771 39.1863C7.00885 42.4893 12.8693 44.0839 17.843 46.3334C21.1681 47.8283 27.652 52.854 31.3927 50.5903C43.072 43.5571 14.1301 37.008 12.3567 35.6697C13.8668 34.1179 16.2498 33.2352 18.0232 31.9396C20.5862 30.0745 22.8722 27.8535 25.4491 26.0027C30.312 22.5146 35.7014 19.4536 41.1462 17.019C50.5811 12.7906 61.9279 10.2848 72.2217 10.1994C79.7586 9.06042 70.7255 10.2136 72.2217 10.1994Z"
      fill="#FF083D"/>
  </symbol>

  <symbol id="prize" viewBox="0 0 80 80" fill="none">
    <g clip-path="url(#clip0)">
      <path
        d="M79.3728 35.728L77.8103 33.0216C77.6031 32.6628 77.2619 32.4009 76.8616 32.2937C76.4612 32.1862 76.0346 32.2426 75.676 32.4498L59.893 41.5621H20.1067L4.32368 32.4498C3.96479 32.2426 3.53855 32.1865 3.1381 32.2937C2.7378 32.401 2.39656 32.6628 2.18938 33.0216L0.627098 35.728C-0.665198 37.9663 0.104305 40.8387 2.34266 42.1308L18.1258 51.2433V71.2485C18.1258 73.8331 20.2286 75.9358 22.8131 75.9358H57.187C59.7716 75.9358 61.8743 73.8331 61.8743 71.2485V51.2433L77.6575 42.131C78.7387 41.5066 79.5131 40.4956 79.8377 39.2839C80.1619 38.0721 79.997 36.8092 79.3728 35.728ZM39.3093 72.811L58.7492 53.371V61.4512L47.3894 72.811H39.3093ZM58.7492 48.9517L34.8899 72.811H26.8097L54.9337 44.687H58.7492V48.9517ZM25.5151 44.687L21.2505 48.9515V44.687H25.5151ZM3.90494 39.4247C3.54652 39.2177 3.28934 38.8805 3.18075 38.475C3.07216 38.0696 3.12622 37.6488 3.33325 37.2904L4.11447 35.9373L18.1257 44.0267V47.635L3.90494 39.4247ZM21.2505 65.8704L26.871 60.25C27.4811 59.6399 27.4811 58.6505 26.871 58.0403C26.2608 57.43 25.2715 57.4301 24.6612 58.0403L21.2505 61.4509V53.3707L29.9346 44.6868H38.0146L34.6044 48.097C33.9943 48.7072 33.9943 49.6965 34.6044 50.3068C34.9096 50.6119 35.3094 50.7644 35.7092 50.7644C36.1091 50.7644 36.509 50.6119 36.814 50.3068L42.4338 44.687H50.514L22.4377 72.7635C21.7571 72.5947 21.2505 71.9805 21.2505 71.2485V65.8704ZM57.1867 72.811H51.8088L58.7492 65.8706V71.2485C58.7492 72.11 58.0482 72.811 57.1867 72.811ZM76.819 38.475C76.7104 38.8805 76.4532 39.2177 76.0948 39.4247L61.874 47.635V44.0267L75.8852 35.9373L76.6665 37.2906C76.8735 37.6488 76.9275 38.0696 76.819 38.475Z"
        fill="white"/>
      <path
        d="M32.7793 17.3189L32.3258 20.776C32.204 21.4358 32.2947 22.1025 32.5897 22.7079C33.13 23.8176 34.2448 24.464 35.4032 24.464C35.8615 24.464 36.3268 24.3627 36.7657 24.149L39.9632 22.5926L43.2539 24.1604C43.8034 24.4227 44.4163 24.5168 45.0262 24.4324C46.7309 24.1966 47.926 22.6178 47.6901 20.9107L47.1973 17.3842L49.6139 14.8353C50.0917 14.3737 50.4042 13.7845 50.5188 13.1278C50.6622 12.3058 50.477 11.4773 49.9974 10.7945C49.5177 10.1117 48.8007 9.6567 47.9826 9.51389L44.4784 8.89314L42.7381 5.69185C42.738 5.69154 42.7378 5.69122 42.7376 5.69091C42.4455 5.15437 42.0058 4.7186 41.4661 4.4308C39.9488 3.62161 38.0558 4.19737 37.2461 5.71575L35.5731 8.85642L32.0587 9.50952C31.4285 9.61077 30.8528 9.8981 30.3919 10.3415C29.7911 10.9193 29.4513 11.6965 29.4352 12.53C29.4191 13.3636 29.7283 14.1533 30.3075 14.7553L32.7793 17.3189ZM32.6077 12.5857L36.8838 11.791C37.3513 11.7041 37.7538 11.4091 37.9774 10.9895L39.9959 7.18992L42.0924 11.0466C42.3194 11.4643 42.7244 11.756 43.1926 11.8388L47.4417 12.5888C47.4184 12.6105 47.3958 12.633 47.3739 12.6561L44.4121 15.7802C44.0849 16.1252 43.9328 16.6005 43.9985 17.0714L44.5993 21.3397L40.628 19.4479C40.1987 19.2434 39.6998 19.2454 39.2721 19.4537L35.3993 21.3417C35.407 21.3046 35.4132 21.2672 35.4182 21.2296L35.9757 16.9792C36.0376 16.5079 35.8813 16.034 35.5513 15.6916L32.5549 12.5947C32.5724 12.5919 32.59 12.5889 32.6077 12.5857Z"
        fill="white"/>
      <path
        d="M38.5225 28.6951V35.9373C38.5225 36.8002 39.222 37.4997 40.0849 37.4997C40.9478 37.4997 41.6474 36.8002 41.6474 35.9373V28.6951C41.6474 27.8321 40.9478 27.1326 40.0849 27.1326C39.222 27.1326 38.5225 27.8321 38.5225 28.6951Z"
        fill="white"/>
      <path
        d="M19.6091 23.9688C19.1775 24.7162 19.4336 25.6717 20.1809 26.1031C23.5033 28.0213 25.6779 32.6526 25.8609 36.022C25.9062 36.8548 26.5955 37.4997 27.4197 37.4997C27.4483 37.4997 27.477 37.499 27.5058 37.4974C28.3675 37.4507 29.0279 36.7141 28.9812 35.8525C28.7506 31.6064 26.1904 25.9644 21.7434 23.397C20.9963 22.9654 20.0406 23.2217 19.6091 23.9688Z"
        fill="white"/>
      <path
        d="M5.70161 20.3282L8.93931 21.5861L10.1964 24.8218C10.4849 25.5671 11.0777 26.1597 11.8231 26.4481C12.1592 26.578 12.5048 26.6395 12.8453 26.6395C13.986 26.6395 15.0645 25.9481 15.4991 24.8238L16.757 21.5861L19.9926 20.329C20.7381 20.0405 21.3307 19.4476 21.6188 18.7025C21.8927 17.9941 21.8743 17.2216 21.567 16.5271C21.2596 15.8326 20.7004 15.2993 19.9947 15.0265L16.757 13.7686L15.4995 10.5325C15.2111 9.78718 14.6183 9.1947 13.873 8.90658C12.4109 8.34129 10.7613 9.07127 10.1972 10.5309L8.93931 13.7686L5.7038 15.0257C4.95836 15.3142 4.36557 15.9069 4.07745 16.6524C3.80371 17.3606 3.82215 18.1333 4.12948 18.8276C4.4365 19.5221 4.99586 20.0554 5.70161 20.3282ZM10.7124 16.4321C11.1209 16.2733 11.4442 15.9502 11.603 15.5415L12.8482 12.3365L14.0935 15.5415C14.2522 15.9501 14.5753 16.2733 14.9841 16.4321L18.1891 17.6772L14.9841 18.9225C14.5755 19.0812 14.2522 19.4043 14.0935 19.8131L12.8482 23.0181L11.603 19.8131C11.4442 19.4045 11.1211 19.0812 10.7124 18.9225L7.50748 17.6772L10.7124 16.4321Z"
        fill="white"/>
      <path
        d="M52.4944 37.4974C52.5233 37.499 52.5518 37.4997 52.5804 37.4997C53.4045 37.4997 54.094 36.8548 54.1393 36.022C54.3223 32.6527 56.4969 28.0213 59.8192 26.1031C60.5665 25.6717 60.8226 24.7162 60.3911 23.9688C59.9597 23.2214 59.004 22.9654 58.2568 23.397C53.8098 25.9644 51.2496 31.6064 51.0189 35.8525C50.9722 36.7142 51.6328 37.4505 52.4944 37.4974Z"
        fill="white"/>
      <path
        d="M60.0049 20.3282L63.2426 21.5861L64.4996 24.8213C64.935 25.9476 66.0136 26.6393 67.1548 26.6393C67.4951 26.6393 67.841 26.5778 68.1769 26.4479C68.9221 26.1598 69.5148 25.567 69.8025 24.8238L71.0604 21.5861L74.2956 20.3291C75.7577 19.7638 76.4876 18.1145 75.9223 16.6519C75.6341 15.9068 75.0414 15.314 74.2981 15.0263L71.0604 13.7684L69.8036 10.5332C69.2384 9.07092 67.5893 8.34142 66.1265 8.90624C65.3819 9.19404 64.7896 9.78605 64.5008 10.5306L63.2429 13.7682L60.0077 15.0251C58.5454 15.5902 57.8156 17.2397 58.3807 18.702C58.6687 19.4477 59.2615 20.0405 60.0049 20.3282ZM65.0156 16.4321C65.4242 16.2733 65.7475 15.9502 65.9062 15.5415L67.1515 12.3364L68.3966 15.5415C68.5554 15.95 68.8785 16.2733 69.2872 16.4321L72.4922 17.6772L69.2872 18.9224C68.8786 19.0812 68.5554 19.4043 68.3966 19.813L67.1515 23.0181L65.9062 19.813C65.7475 19.4044 65.4244 19.0812 65.0156 18.9224L61.8106 17.6772L65.0156 16.4321Z"
        fill="white"/>
      <path
        d="M30.7387 55.7365C31.6017 55.7365 32.3012 55.037 32.3012 54.174C32.3012 53.311 31.6017 52.6115 30.7387 52.6115H30.7377C29.8747 52.6115 29.1758 53.311 29.1758 54.174C29.1758 55.037 29.8758 55.7365 30.7387 55.7365Z"
        fill="white"/>
    </g>
    <defs>
      <clipPath id="clip0">
        <rect width="80" height="80" fill="white"/>
      </clipPath>
    </defs>
  </symbol>

  <symbol id="coupon" viewBox="0 0 80 80" fill="none">
    <g clip-path="url(#clip0)">
      <path
        d="M78.4897 12.1585L79.543 11.1052C80.1531 10.495 80.1531 9.50567 79.543 8.89536C78.9329 8.28537 77.9435 8.28537 77.3332 8.89536L76.2799 9.94863L75.2273 8.89599C74.9343 8.60302 74.5368 8.43834 74.1224 8.43834H72.4039L64.4232 0.457651C64.1301 0.164686 63.7327 0 63.3184 0H5.6281C2.52532 0 0.000976562 2.52419 0.000976562 5.62712V34.9082C0.000976562 38.011 2.52532 40.5353 5.6281 40.5353H19.2404L10.0866 49.6893C9.02384 50.7521 8.43853 52.1652 8.43853 53.6683C8.43853 55.1712 9.02384 56.5843 10.0866 57.6473L30.7914 78.352C31.8542 79.4148 33.2673 80.0002 34.7704 80.0002C36.2735 80.0002 37.6866 79.4148 38.7494 78.352L65.2566 51.845C65.8669 51.2349 65.8669 50.2455 65.2566 49.6352C64.6464 49.0254 63.6571 49.0252 63.0469 49.6352L36.5396 76.1422C36.0671 76.6149 35.4387 76.875 34.7704 76.875C34.1021 76.875 33.4737 76.6149 33.0012 76.1422L12.2963 55.4375C11.8238 54.965 11.5635 54.3365 11.5635 53.6683C11.5635 52.9998 11.8238 52.3716 12.2963 51.8991L52.6318 11.5636H73.4754L74.0704 12.1586L70.4573 15.7717C69.8453 15.4783 69.1605 15.3137 68.4377 15.3137C65.853 15.3137 63.7502 17.4165 63.7502 20.0012C63.7502 22.5858 65.853 24.6886 68.4377 24.6886C71.0223 24.6886 73.1251 22.5858 73.1251 20.0012C73.1251 19.2784 72.9604 18.5934 72.667 17.9815L76.2801 14.3684L76.8751 14.9634V35.8069L61.9902 50.6919C61.3801 51.3021 61.3801 52.2914 61.9902 52.9017C62.6004 53.5117 63.5898 53.5117 64.2001 52.9017L79.5425 37.5592C79.8355 37.2661 80.0002 36.8688 80.0002 36.4544V14.3159C80.0002 13.9016 79.8355 13.5042 79.5425 13.2111L78.4897 12.1585ZM28.0599 28.0364C27.198 28.0364 26.4969 27.3353 26.4969 26.4734C26.4969 25.6114 27.198 24.9103 28.0599 24.9103C28.9217 24.9103 29.6228 25.6114 29.6228 26.4734C29.6228 27.3351 28.9217 28.0364 28.0599 28.0364ZM51.9846 8.43849C51.5702 8.43849 51.1727 8.60318 50.8797 8.89614L32.709 27.0667C32.7337 26.8722 32.7479 26.6744 32.7479 26.4733C32.7479 23.8883 30.645 21.7852 28.06 21.7852C25.4752 21.7852 23.3721 23.8883 23.3721 26.4733C23.3721 29.0583 25.475 31.1612 28.06 31.1612C28.2611 31.1612 28.4589 31.147 28.6534 31.1223L22.3656 37.4102H5.6281C4.24843 37.4102 3.12594 36.2877 3.12594 34.908V5.62712C3.12594 4.24745 4.24843 3.12496 5.6281 3.12496H62.671L67.9846 8.43849H51.9846ZM68.4377 21.5633C67.5761 21.5633 66.8752 20.8624 66.8752 20.0009C66.8752 19.1393 67.5761 18.4384 68.4377 18.4384C68.7942 18.4384 69.1223 18.5598 69.3856 18.7617C69.427 18.8157 69.4711 18.8685 69.5205 18.9179C69.5698 18.9673 69.6227 19.0113 69.6767 19.0527C69.8786 19.316 70 19.6441 70 20.0007C70.0001 20.8624 69.2992 21.5633 68.4377 21.5633Z"
        fill="white"/>
      <path
        d="M51.9677 46.2237C52.382 46.2237 52.7795 46.059 53.0725 45.766L56.6079 42.2304C57.2181 41.6203 57.2181 40.6309 56.6079 40.0206C55.9978 39.4106 55.0084 39.4106 54.3982 40.0206L51.9677 42.4514L44.2337 34.7176C43.6237 34.1076 42.6342 34.1076 42.024 34.7176C41.4139 35.3277 41.4139 36.3171 42.024 36.9274L50.8628 45.766C51.1559 46.059 51.5534 46.2237 51.9677 46.2237Z"
        fill="white"/>
      <path
        d="M64.1213 32.5079C63.5112 31.8979 62.5218 31.8979 61.9115 32.5079L59.9228 34.4966L57.7131 32.2871L59.7018 30.2984C60.312 29.6883 60.312 28.6989 59.7018 28.0886C59.0917 27.4786 58.1023 27.4786 57.492 28.0886L55.5033 30.0773L53.2936 27.8677L55.2823 25.8789C55.8925 25.2688 55.8927 24.2794 55.2823 23.6691C54.6722 23.0593 53.6828 23.0591 53.0727 23.6691L49.9791 26.7627C49.6862 27.0556 49.5215 27.4531 49.5215 27.8675C49.5215 28.2819 49.6862 28.6792 49.9791 28.9723L58.8179 37.811C59.1229 38.116 59.5229 38.2686 59.9228 38.2686C60.3226 38.2686 60.7226 38.116 61.0276 37.811L64.1211 34.7174C64.7315 34.1074 64.7315 33.1181 64.1213 32.5079Z"
        fill="white"/>
      <path
        d="M46.839 50.4727C47.6076 50.8646 48.5487 50.5586 48.9405 49.7897C49.3322 49.0208 49.0265 48.0801 48.2574 47.6883L36.5461 41.7222C35.943 41.4148 35.2107 41.5309 34.7321 42.0095C34.2535 42.4881 34.1374 43.2206 34.4448 43.8235L40.4109 55.5348C40.6869 56.0767 41.2353 56.3886 41.8044 56.3884C42.0429 56.3884 42.2853 56.3336 42.5123 56.2178C43.2812 55.8261 43.587 54.8853 43.1954 54.1164L42.7164 53.1758L45.8987 49.9935L46.839 50.4727ZM41.2247 50.2482L39.4116 46.689L42.9709 48.5022L41.2247 50.2482Z"
        fill="white"/>
      <path
        d="M31.8602 62.5596C31.2501 63.1697 31.2499 64.1591 31.8602 64.7694C32.1654 65.0744 32.5652 65.2271 32.965 65.2271C33.3649 65.2271 33.7649 65.0744 34.0699 64.7694L36.2797 62.5598C38.1073 60.7321 38.1073 57.7584 36.2797 55.9306C34.5425 54.1934 31.7708 54.1088 29.931 55.6737C29.8738 55.717 29.8182 55.763 29.7662 55.8151L29.6506 55.9306C29.3554 56.2258 28.9631 56.3883 28.5457 56.3883C28.1284 56.3883 27.736 56.2258 27.4409 55.9306C26.8317 55.3214 26.8317 54.3302 27.4409 53.7208L29.6506 51.5111C30.2607 50.901 30.2609 49.9116 29.6506 49.3013C29.0404 48.6915 28.051 48.6913 27.4409 49.3013L25.2311 51.511C23.4034 53.3386 23.4034 56.3125 25.2311 58.1403C26.1165 59.0256 27.2936 59.5131 28.5456 59.5131C29.7959 59.5131 30.9715 59.0268 31.8568 58.1434C31.8579 58.1423 31.8591 58.1414 31.8602 58.1403C32.4693 57.5309 33.4607 57.5309 34.0699 58.1403C34.365 58.4354 34.5275 58.8276 34.5275 59.2449C34.5275 59.6624 34.365 60.0548 34.0699 60.3498L31.8602 62.5596Z"
        fill="white"/>
      <path
        d="M26.7712 10.0869C26.0198 9.66284 25.0667 9.92784 24.6425 10.6794L14.5644 28.5314C14.1402 29.2829 14.4054 30.2359 15.1569 30.6601C15.3997 30.7971 15.6633 30.8623 15.9236 30.8623C16.469 30.8623 16.9985 30.5763 17.2857 30.0676L27.3637 12.2156C27.7879 11.4641 27.5227 10.511 26.7712 10.0869Z"
        fill="white"/>
      <path
        d="M19.5587 14.0621C19.5587 11.4771 17.4557 9.37408 14.8707 9.37408C12.2857 9.37408 10.1826 11.4771 10.1826 14.0621C10.1826 16.6471 12.2856 18.7502 14.8706 18.7502C17.4556 18.7502 19.5587 16.6471 19.5587 14.0621ZM13.3076 14.0621C13.3076 13.2002 14.0087 12.4991 14.8706 12.4991C15.7325 12.4991 16.4336 13.2002 16.4336 14.0621C16.4336 14.9241 15.7325 15.6252 14.8706 15.6252C14.0087 15.6252 13.3076 14.9241 13.3076 14.0621Z"
        fill="white"/>
    </g>
    <defs>
      <clipPath id="clip0">
        <rect width="80" height="80" fill="white"/>
      </clipPath>
    </defs>
  </symbol>

  <symbol id="property" viewBox="0 0 80 80" fill="none">
    <path fill-rule="evenodd" clip-rule="evenodd"
          d="M78.0144 27.0407L78.019 27.0452C80.1715 29.2023 80.1705 32.71 78.0158 34.8657C76.97 35.9115 75.5809 36.4869 74.1037 36.4869H73.1978V54.5256C73.1978 58.0956 70.2934 61 66.7229 61H58.2154L55.3722 58.6011V42.8537C55.3722 41.2248 54.0473 39.8999 52.4183 39.8999H46.7618C45.1329 39.8999 43.8075 41.2248 43.8075 42.8537V49.6714C42.6772 49.1274 41.4983 48.6909 40.2865 48.3678V42.8537C40.2865 39.2837 43.1913 36.3789 46.7618 36.3789H52.4183C55.9889 36.3789 58.8932 39.2837 58.8932 42.8537V57.479H66.7229C68.3518 57.479 69.6768 56.154 69.6768 54.5256V34.7263C69.6768 33.7539 70.4649 32.9658 71.4373 32.9658H74.1037C74.6406 32.9658 75.1458 32.7563 75.5259 32.3763C76.308 31.5937 76.3094 30.3205 75.5295 29.5352C75.5259 29.5315 75.5217 29.5278 75.5181 29.5242L51.0118 5.01833C50.6317 4.63827 50.1269 4.42921 49.5901 4.42921C49.0528 4.42921 48.548 4.63827 48.1684 5.01833L23.6566 29.5292L23.6552 29.5306L23.6543 29.5315C22.8703 30.3159 22.8703 31.5918 23.6543 32.3758C24.0229 32.7449 24.5149 32.953 25.0393 32.9622C25.0673 32.9626 25.0944 32.964 25.1219 32.9658H27.7424C28.7148 32.9658 29.5029 33.7539 29.5029 34.7263V47.6925H25.9819V36.4869H25.0054C24.9481 36.4869 24.8913 36.4841 24.8344 36.4786C23.4457 36.4185 22.1473 35.8491 21.1639 34.8653C19.0115 32.7128 19.0078 29.2115 21.1534 27.0535C21.1612 27.0453 21.1699 27.0366 21.1781 27.0283L21.1782 27.0283L45.678 2.52887C46.7233 1.48358 48.1125 0.908203 49.5901 0.908203C51.0677 0.908203 52.4569 1.48358 53.5017 2.52887L78.0144 27.0407Z"
          fill="white"/>
    <path
      d="M12.375 65.2499C8.5855 65.2499 5.5 68.3354 5.5 72.1249C5.5 75.9143 8.5855 79 12.375 79C16.1644 79 19.2499 75.9145 19.2499 72.125C19.2499 68.3356 16.1644 65.2499 12.375 65.2499ZM12.375 76.25C10.1007 76.25 8.24996 74.3993 8.24996 72.125C8.24996 69.8507 10.1007 68 12.375 68C14.6493 68 16.5 69.8507 16.5 72.125C16.5 74.3992 14.6493 76.25 12.375 76.25Z"
      fill="white"/>
    <path
      d="M53.625 65.2499C49.8355 65.2499 46.75 68.3354 46.75 72.1249C46.75 75.9143 49.8355 79 53.625 79C57.4144 79 60.4999 75.9145 60.4999 72.125C60.4999 68.3356 57.4144 65.2499 53.625 65.2499ZM53.625 76.25C51.3507 76.25 49.5 74.3993 49.5 72.125C49.5 69.8507 51.3507 68 53.625 68C55.8993 68 57.75 69.8507 57.75 72.125C57.75 74.3992 55.8993 76.25 53.625 76.25Z"
      fill="white"/>
    <path
      d="M57.75 57H55.4235C54.5737 57 53.7405 56.7085 53.075 56.175L42.24 47.5069C41.0245 46.5363 39.4983 46 37.9445 46H18.0675C15.763 46 13.6263 47.144 12.3475 49.0608L10.0073 52.5752C9.306 53.623 8.1345 54.25 6.87496 54.25C3.0855 54.25 0 57.3355 0 61.125V66.625C0 70.4145 3.0855 73.5 6.87496 73.5C7.63396 73.5 8.25 72.8839 8.25 72.1249C8.25 71.3659 7.63396 70.75 6.87496 70.75C4.60066 70.75 2.74996 68.8993 2.74996 66.625V61.125C2.74996 58.8507 4.60066 57 6.87496 57C9.0585 57 11.0825 55.9165 12.2952 54.0987L14.6355 50.5869C15.4028 49.4374 16.687 48.7498 18.0675 48.7498H37.9445C38.8794 48.7498 39.7925 49.0716 40.524 49.6546L51.359 58.3198C52.5057 59.2411 53.9522 59.7498 55.4262 59.7498H57.75C61.7842 59.7498 63.25 63.861 63.25 66.6247C63.25 69.3334 61.1766 70.7497 59.125 70.7497C58.366 70.7497 57.75 71.3658 57.75 72.1248C57.75 72.8838 58.366 73.4998 59.125 73.4998C63.0438 73.5 66 70.5438 66 66.625C66 61.9582 63.1098 57 57.75 57Z"
      fill="white"/>
    <path
      d="M48.125 70.75H17.875C17.116 70.75 16.5 71.366 16.5 72.125C16.5 72.884 17.116 73.5001 17.875 73.5001H48.1251C48.8841 73.5001 49.5001 72.884 49.5001 72.125C49.5001 71.366 48.884 70.75 48.125 70.75Z"
      fill="white"/>
    <path
      d="M45.3751 56.9999H33.0001V52.8749C33.0001 52.1159 32.384 51.4999 31.625 51.4999C30.866 51.4999 30.25 52.1159 30.25 52.8749V58.375C30.25 59.134 30.866 59.75 31.625 59.75H45.3751C46.1341 59.75 46.7501 59.134 46.7501 58.375C46.7501 57.616 46.1341 56.9999 45.3751 56.9999Z"
      fill="white"/>
    <path
      d="M26.1248 56.9999H17.3495L19.1068 53.491C19.445 52.8118 19.1701 51.9868 18.4908 51.6457C17.8087 51.3074 16.9865 51.5797 16.6455 52.2617L13.8955 57.7618C13.681 58.1852 13.7058 58.694 13.956 59.0983C14.2062 59.5025 14.649 59.75 15.1248 59.75H26.1247C26.8837 59.75 27.4997 59.134 27.4997 58.375C27.4997 57.616 26.8838 56.9999 26.1248 56.9999Z"
      fill="white"/>
    <path
      d="M37.125 62.5H34.375C33.616 62.5 33 63.116 33 63.875C33 64.634 33.616 65.2501 34.375 65.2501H37.125C37.884 65.2501 38.5 64.634 38.5 63.875C38.5 63.116 37.884 62.5 37.125 62.5Z"
      fill="white"/>
  </symbol>

  <symbol id="phone" viewBox="0 0 21 21" fill="none">
    <path
      d="M19.6784 14.5818C18.2941 14.5818 16.9543 14.3595 15.709 13.9484C15.3254 13.8262 14.8862 13.9151 14.5804 14.2207L12.1343 16.6707C8.98212 15.0707 6.40809 12.4984 4.80698 9.35402L7.2531 6.89844C7.55889 6.59287 7.64781 6.15402 7.52553 5.77068C7.11415 4.52626 6.89176 3.18735 6.89176 1.80402C6.89171 1.1873 6.39694 0.692871 5.77984 0.692871H1.88823C1.27671 0.692871 0.776367 1.1873 0.776367 1.80396C0.776367 12.2373 9.23781 20.6929 19.6784 20.6929C20.2955 20.6929 20.7903 20.1984 20.7903 19.5818V15.6929C20.7903 15.0762 20.2955 14.5818 19.6784 14.5818Z"
      fill="#F2F2F2"/>
  </symbol>

  <symbol id="map-pin" viewBox="0 0 20 29" fill="none">
    <path
      d="M10 0.692871C4.48597 0.692871 0 5.17884 0 10.6928C0 17.5358 8.94902 27.5818 9.33003 28.0061C9.68791 28.4047 10.3127 28.404 10.67 28.0061C11.051 27.5818 20 17.5358 20 10.6928C19.9999 5.17884 15.514 0.692871 10 0.692871ZM10 15.7241C7.22575 15.7241 4.9688 13.4671 4.9688 10.6928C4.9688 7.91857 7.22581 5.66162 10 5.66162C12.7742 5.66162 15.0311 7.91863 15.0311 10.6929C15.0311 13.4671 12.7742 15.7241 10 15.7241Z"
      fill="#F2F2F2"/>
  </symbol>

  <symbol id="inst" viewBox="0 0 41 41" fill="none">
    <path
      d="M23.9409 20.6929C23.9409 22.8071 22.2258 24.521 20.1101 24.521C17.9944 24.521 16.2793 22.8071 16.2793 20.6929C16.2793 18.5786 17.9944 16.8647 20.1101 16.8647C22.2258 16.8647 23.9409 18.5786 23.9409 20.6929Z"
      fill="#F2F2F2"/>
    <path
      d="M29.0692 13.9197C28.885 13.4211 28.5912 12.9697 28.2095 12.5992C27.8388 12.2178 27.3874 11.9242 26.8881 11.7402C26.4831 11.583 25.8748 11.3959 24.7543 11.345C23.5423 11.2897 23.1788 11.2778 20.1103 11.2778C17.0415 11.2778 16.678 11.2894 15.4663 11.3447C14.3458 11.3959 13.7372 11.583 13.3325 11.7402C12.8332 11.9242 12.3815 12.2178 12.0111 12.5992C11.6294 12.9697 11.3356 13.4208 11.1511 13.9197C10.9939 14.3244 10.8067 14.9326 10.7557 16.0523C10.7004 17.2632 10.6885 17.6264 10.6885 20.6931C10.6885 23.7595 10.7004 24.1227 10.7557 25.3339C10.8067 26.4536 10.9939 27.0615 11.1511 27.4662C11.3356 27.9651 11.6291 28.4162 12.0108 28.7867C12.3815 29.1682 12.8329 29.4617 13.3322 29.6458C13.7372 29.8032 14.3458 29.9903 15.4663 30.0413C16.678 30.0965 17.0412 30.1081 20.11 30.1081C23.1791 30.1081 23.5426 30.0965 24.754 30.0413C25.8745 29.9903 26.4831 29.8032 26.8881 29.6458C27.8904 29.2594 28.6825 28.4678 29.0692 27.4662C29.2264 27.0615 29.4136 26.4536 29.4649 25.3339C29.5202 24.1227 29.5318 23.7595 29.5318 20.6931C29.5318 17.6264 29.5202 17.2632 29.4649 16.0523C29.4139 14.9326 29.2267 14.3244 29.0692 13.9197ZM20.1103 26.59C16.8509 26.59 14.2087 23.95 14.2087 20.6928C14.2087 17.4357 16.8509 14.7956 20.1103 14.7956C23.3694 14.7956 26.0116 17.4357 26.0116 20.6928C26.0116 23.95 23.3694 26.59 20.1103 26.59ZM26.2449 15.9406C25.4833 15.9406 24.8658 15.3235 24.8658 14.5624C24.8658 13.8013 25.4833 13.1843 26.2449 13.1843C27.0066 13.1843 27.6241 13.8013 27.6241 14.5624C27.6238 15.3235 27.0066 15.9406 26.2449 15.9406Z"
      fill="#F2F2F2"/>
    <path
      d="M20.1106 0.692871C9.0589 0.692871 0.0966797 9.64886 0.0966797 20.6929C0.0966797 31.7369 9.0589 40.6929 20.1106 40.6929C31.1623 40.6929 40.1245 31.7369 40.1245 20.6929C40.1245 9.64886 31.1623 0.692871 20.1106 0.692871ZM31.5336 25.4277C31.478 26.6502 31.2835 27.4849 30.9995 28.2155C30.4025 29.7581 29.1821 30.9776 27.6384 31.5742C26.9076 31.858 26.0721 32.0521 24.849 32.108C23.6235 32.1638 23.2319 32.1772 20.1109 32.1772C16.9895 32.1772 16.5983 32.1638 15.3725 32.108C14.1494 32.0521 13.3139 31.858 12.5831 31.5742C11.8159 31.2858 11.1215 30.8339 10.5474 30.2495C9.96285 29.676 9.51057 28.9818 9.22197 28.2155C8.93796 27.4852 8.74343 26.6502 8.68785 25.428C8.63135 24.203 8.61822 23.8118 8.61822 20.6929C8.61822 17.574 8.63135 17.1827 8.68755 15.9581C8.74313 14.7355 8.93735 13.9009 9.22136 13.1703C9.50996 12.404 9.96254 11.7097 10.5474 11.1363C11.1212 10.5519 11.8159 10.0999 12.5828 9.81152C13.3139 9.52771 14.1491 9.33362 15.3725 9.27777C16.598 9.22192 16.9895 9.2085 20.1106 9.2085C23.2316 9.2085 23.6231 9.22192 24.8487 9.27808C26.0721 9.33362 26.9073 9.52771 27.6384 9.81122C28.4052 10.0996 29.1 10.5519 29.6741 11.1363C30.2586 11.71 30.7112 12.404 30.9995 13.1703C31.2838 13.9009 31.478 14.7355 31.5339 15.9581C31.5898 17.1827 31.6029 17.574 31.6029 20.6929C31.6029 23.8118 31.5898 24.203 31.5336 25.4277Z"
      fill="#F2F2F2"/>
  </symbol>

  <symbol id="wpp" viewBox="0 0 41 40" fill="none">
    <path
      d="M20.1594 0.692871C9.10773 0.692871 0.145508 9.42496 0.145508 20.1929C0.145508 30.9608 9.10773 39.6929 20.1594 39.6929C31.2111 39.6929 40.1733 30.9608 40.1733 20.1929C40.1733 9.42496 31.2111 0.692871 20.1594 0.692871ZM20.5836 31.5463C20.5833 31.5463 20.5839 31.5463 20.5836 31.5463H20.5787C18.5738 31.5455 16.6038 31.0557 14.8542 30.1262L8.50428 31.7487L10.2038 25.7025C9.15537 23.9333 8.60384 21.9261 8.60475 19.8697C8.6075 13.4368 13.9811 8.20324 20.5836 8.20324C23.7877 8.20443 26.7955 9.41961 29.0569 11.6247C31.3186 13.8301 32.5633 16.7616 32.5621 19.879C32.5594 26.3122 27.1852 31.5463 20.5836 31.5463Z"
      fill="#F2F2F2"/>
    <path
      d="M20.5875 10.1738C15.0957 10.1738 10.6294 14.5237 10.627 19.8706C10.6263 21.7029 11.1528 23.4872 12.1493 25.0312L12.386 25.3981L11.38 28.9767L15.1482 28.0138L15.5119 28.2239C17.0404 29.1076 18.7927 29.575 20.5792 29.5756H20.5832C26.0707 29.5756 30.537 25.2255 30.5395 19.8783C30.5404 17.287 29.5057 14.8507 27.6261 13.0178C25.7464 11.1849 23.2465 10.1747 20.5875 10.1738ZM26.4436 24.0398C26.1941 24.7206 24.9985 25.3421 24.4235 25.4261C23.9077 25.501 23.2554 25.5323 22.5383 25.3106C22.1034 25.1761 21.5461 24.9967 20.8318 24.6965C17.8295 23.4337 15.8686 20.4892 15.719 20.2946C15.5694 20.1 14.4968 18.7137 14.4968 17.2786C14.4968 15.8439 15.2701 15.1384 15.5443 14.8468C15.8189 14.5549 16.1432 14.482 16.3426 14.482C16.542 14.482 16.7417 14.4838 16.9161 14.4921C17.1 14.501 17.3467 14.424 17.5895 14.9926C17.839 15.5764 18.4376 17.0111 18.5124 17.1569C18.5872 17.303 18.637 17.4732 18.5374 17.6678C18.4376 17.8624 18.1059 18.2823 17.7892 18.6649C17.6564 18.8253 17.4832 18.9681 17.6579 19.26C17.8323 19.5516 18.4333 20.5064 19.3229 21.2794C20.4662 22.2727 21.4307 22.5803 21.7299 22.7264C22.0289 22.8722 22.2036 22.8478 22.3783 22.6535C22.5527 22.4589 23.1265 21.8022 23.3259 21.5103C23.5253 21.2185 23.725 21.2673 23.9993 21.3645C24.2738 21.4615 25.7452 22.167 26.0445 22.3128C26.3437 22.4589 26.5432 22.5318 26.618 22.6535C26.6931 22.7752 26.6931 23.3587 26.4436 24.0398Z"
      fill="#F2F2F2"/>
  </symbol>

  <symbol id="logo-3" viewBox="0 0 133 60" fill="none">
    <path d="M63.3538 44.8446V32.7176H61.5918V29.6069H66.6993V44.8446H63.3538Z" fill="#010A68"/>
    <path
      d="M68.1035 34.9039C68.1035 34.1376 68.2373 33.4162 68.5161 32.7513C68.7838 32.0863 69.1741 31.5115 69.6759 31.0156C70.1777 30.531 70.7688 30.1366 71.4713 29.8548C72.1628 29.573 72.9434 29.4265 73.7909 29.4265C74.6385 29.4265 75.4191 29.5618 76.1216 29.8548C76.8242 30.1366 77.4264 30.5197 77.9282 31.0156C78.4301 31.5003 78.8092 32.0863 79.088 32.7513C79.3557 33.4162 79.5006 34.1376 79.5006 34.9039V39.6375C79.5006 40.4265 79.3668 41.1478 79.088 41.8015C78.8204 42.4551 78.4301 43.0299 77.9282 43.5258C77.4264 44.0105 76.8242 44.3937 76.1216 44.6754C75.4191 44.9459 74.6385 45.0924 73.7909 45.0924C72.9434 45.0924 72.1628 44.9572 71.4713 44.6754C70.7799 44.4049 70.1777 44.0217 69.6759 43.5258C69.1741 43.0412 68.7949 42.4664 68.5161 41.8015C68.2485 41.1365 68.1035 40.4152 68.1035 39.6375V34.9039ZM76.3447 34.9265C76.3447 34.1714 76.1105 33.5628 75.631 33.1007C75.1514 32.6386 74.5381 32.4132 73.7909 32.4132C73.0438 32.4132 72.4304 32.6386 71.9509 33.1007C71.4713 33.5628 71.2372 34.1714 71.2372 34.9265V39.615C71.2372 40.3701 71.4713 40.9787 71.9509 41.4408C72.4304 41.9029 73.0438 42.1283 73.7909 42.1283C74.5381 42.1283 75.1514 41.9029 75.631 41.4408C76.1105 40.9787 76.3447 40.3701 76.3447 39.615V34.9265Z"
      fill="#010A68"/>
    <path
      d="M80.8945 34.9039C80.8945 34.1376 81.0284 33.4162 81.3071 32.7513C81.5748 32.0863 81.9651 31.5115 82.4669 31.0156C82.9688 30.531 83.5598 30.1366 84.2624 29.8548C84.9649 29.573 85.7344 29.4265 86.5819 29.4265C87.4295 29.4265 88.2101 29.5618 88.9127 29.8548C89.6152 30.1366 90.2174 30.5197 90.7192 31.0156C91.2211 31.5003 91.6002 32.0863 91.879 32.7513C92.1467 33.4162 92.2916 34.1376 92.2916 34.9039V39.6375C92.2916 40.4265 92.1578 41.1478 91.879 41.8015C91.6114 42.4551 91.2211 43.0299 90.7192 43.5258C90.2174 44.0105 89.6152 44.3937 88.9127 44.6754C88.2101 44.9459 87.4295 45.0924 86.5819 45.0924C85.7344 45.0924 84.9538 44.9572 84.2624 44.6754C83.571 44.3937 82.9688 44.0217 82.4669 43.5258C81.9651 43.0412 81.5859 42.4664 81.3071 41.8015C81.0395 41.1365 80.8945 40.4152 80.8945 39.6375V34.9039ZM89.1245 34.9265C89.1245 34.1714 88.8903 33.5628 88.4108 33.1007C87.9313 32.6386 87.318 32.4132 86.5708 32.4132C85.8236 32.4132 85.2103 32.6386 84.7307 33.1007C84.2512 33.5628 84.017 34.1714 84.017 34.9265V39.615C84.017 40.3701 84.2512 40.9787 84.7307 41.4408C85.2103 41.9029 85.8236 42.1283 86.5708 42.1283C87.318 42.1283 87.9313 41.9029 88.4108 41.4408C88.8903 40.9787 89.1245 40.3701 89.1245 39.615V34.9265Z"
      fill="#010A68"/>
    <path
      d="M97.8473 41.7565H105.286V44.8446H93.5762V41.9931L100.858 32.695H93.5985V29.6069H105.152V32.5034L97.8473 41.7565Z"
      fill="#010A68"/>
    <path
      d="M116.337 42.2186H110.415L109.556 44.8446H106.055L111.385 29.6069H115.567L120.875 44.8446H117.195L116.337 42.2186ZM113.359 33.2135L111.396 39.1755H115.311L113.359 33.2135Z"
      fill="#010A68"/>
    <path
      d="M127.197 45.1149C125.836 45.1149 124.699 44.8106 123.784 44.202C122.87 43.5934 122.167 42.782 121.654 41.7789L124.342 40.1785C124.476 40.449 124.632 40.6969 124.799 40.9336C124.978 41.1703 125.178 41.3844 125.401 41.5647C125.624 41.7563 125.892 41.8916 126.182 41.993C126.472 42.0945 126.818 42.1508 127.197 42.1508C127.955 42.1508 128.591 41.9141 129.081 41.452C129.572 40.99 129.817 40.3475 129.817 39.5473C129.817 38.7584 129.572 38.1385 129.093 37.6877C128.613 37.2369 127.977 37.0115 127.197 37.0115C126.818 37.0115 126.483 37.0678 126.182 37.1918C125.892 37.3158 125.635 37.451 125.424 37.6201C125.212 37.7892 125.033 37.9807 124.899 38.1723C124.766 38.3752 124.654 38.5555 124.576 38.7133L121.933 37.8906L123.45 29.573H131.68V32.616H125.691L125.234 34.9715C125.524 34.7912 125.892 34.6334 126.338 34.4869C126.773 34.3404 127.252 34.2615 127.743 34.2615C128.49 34.2615 129.182 34.3855 129.817 34.6334C130.453 34.8814 131.011 35.2308 131.479 35.6928C131.947 36.1549 132.315 36.7072 132.583 37.3383C132.851 37.9807 132.973 38.6795 132.973 39.4572C132.973 40.2574 132.84 41.0012 132.55 41.6887C132.271 42.3762 131.88 42.9736 131.367 43.4807C130.866 43.9879 130.252 44.3824 129.539 44.6754C128.858 44.9684 128.067 45.1149 127.197 45.1149Z"
      fill="#010A68"/>
    <path
      d="M47.8525 3.20047C46.202 0.574458 43.5702 -0.732913 38.8864 2.25375C34.2027 5.24042 30.8906 14.0201 30.8906 14.0201C30.8906 14.0201 34.5596 9.0611 38.1727 6.76193C41.7859 4.46276 43.3025 4.65436 43.9493 5.69124C44.5961 6.72812 44.1166 8.20455 40.5034 10.5037C36.9014 12.8029 30.8906 14.0201 30.8906 14.0201C30.8906 14.0201 40.1577 14.7752 44.8415 11.7773C49.5141 8.79061 49.4918 5.82648 47.8525 3.20047Z"
      fill="#010A68"/>
    <path
      d="M26.5062 7.31402C25.3911 4.62039 25.6921 3.60605 26.4505 3.29048C27.2088 2.9749 28.1232 3.4708 29.2384 6.16444C30.3536 8.85807 30.4763 13.0507 30.4763 13.0507C30.4763 13.0507 32.0152 6.87448 30.5766 3.38064C29.138 -0.124467 27.1753 -0.44004 25.2461 0.371432C23.3168 1.1829 22.1682 2.81712 23.6068 6.31095C25.0453 9.81606 30.4651 13.0394 30.4651 13.0394C30.4651 13.0394 27.6103 10.0077 26.5062 7.31402Z"
      fill="#010A68"/>
    <path
      d="M30.1314 13.4902C25.3249 11.36 21.3215 6.66027 16.6712 4.03425C15.8459 3.57217 14.8088 3.66233 14.6416 4.21458L14.1509 5.74736C14.0171 6.18691 14.5077 6.73916 15.2661 6.97584C20.3959 8.58751 24.7785 12.5547 30.0198 13.7945C30.1648 13.8283 30.2875 13.7945 30.3098 13.7043C30.3321 13.6367 30.2652 13.5465 30.1314 13.4902Z"
      fill="#010A68"/>
    <path
      d="M44.6729 48.609C43.9926 49.3415 43.6915 49.7924 43.1339 50.5813C42.5652 50.5362 41.7623 50.446 41.1155 50.3446C39.9891 50.1643 39.0078 49.8487 37.8814 49.5219C37.7476 49.6571 37.4911 49.8374 37.4131 50.1417C37.112 51.4942 38.7401 51.5956 40.1229 52.0803C42.4202 52.8917 43.1228 54.2554 42.8551 55.4614C42.3756 57.6028 39.0858 60.2513 34.6028 59.9808L34.4355 59.113C37.4465 59.1468 39.5431 57.7606 39.8665 56.3179C40.1899 54.8641 38.6621 54.2216 37.4577 53.6018C36.454 53.0946 35.2608 52.4747 35.5284 51.2575C35.7403 50.3108 36.6994 49.2852 38.1268 47.8313C40.424 48.361 41.1935 48.6653 42.186 48.8231C42.6432 48.902 43.4908 49.071 44.1599 48.3948L44.6729 48.609Z"
      fill="#010A68"/>
    <path
      d="M12.8902 11.0558L11.039 10.5937C9.39973 10.188 7.73812 11.2024 7.33665 12.8591L6.87943 14.73C6.47797 16.3868 7.48163 18.0661 9.12093 18.4718L10.9721 18.9339C12.6114 19.3396 14.273 18.3253 14.6745 16.6685L15.1317 14.7976C15.522 13.1521 14.5184 11.4616 12.8902 11.0558Z"
      fill="#010A68"/>
    <path
      d="M21.7008 13.2424L19.8496 12.7803C18.2103 12.3745 16.5487 13.3889 16.1472 15.0456L15.69 16.9165C15.2885 18.5733 16.2922 20.2526 17.9315 20.6583L19.7827 21.1204C21.422 21.5261 23.0836 20.5118 23.4851 18.855L23.9423 16.9841C24.3437 15.3387 23.3401 13.6481 21.7008 13.2424Z"
      fill="#010A68"/>
    <path
      d="M30.5113 15.4401L28.6601 14.978C27.0208 14.5723 25.3592 15.5866 24.9577 17.2434L24.5005 19.1143C24.0991 20.771 25.1027 22.4503 26.742 22.8561L28.5932 23.3182C30.2325 23.7239 31.8941 22.7095 32.2956 21.0528L32.7528 19.1819C33.1543 17.5251 32.1506 15.8459 30.5113 15.4401Z"
      fill="#010A68"/>
    <path
      d="M39.3316 17.6264L37.4804 17.1643C35.8411 16.7586 34.1795 17.7729 33.7781 19.4297L33.3208 21.3006C32.9194 22.9573 33.923 24.6366 35.5623 25.0423L37.4135 25.5044C39.0528 25.9102 40.7145 24.8958 41.1159 23.2391L41.5731 21.3682C41.9746 19.7114 40.9598 18.0321 39.3316 17.6264Z"
      fill="#010A68"/>
    <path
      d="M48.1402 19.8129L46.289 19.3508C44.6497 18.9451 42.9881 19.9594 42.5867 21.6162L42.1294 23.4871C41.728 25.1438 42.7316 26.8231 44.3709 27.2289L46.2221 27.691C47.8503 28.0967 49.523 27.0824 49.9245 25.4256L50.3817 23.5547C50.7832 21.9092 49.7795 20.2187 48.1402 19.8129Z"
      fill="#010A68"/>
    <path
      d="M10.6266 20.3539L8.77537 19.8918C7.13606 19.4861 5.47444 20.5004 5.07298 22.1572L4.61576 24.0281C4.21429 25.6849 5.21795 27.3641 6.85726 27.7699L8.70846 28.232C10.3478 28.6377 12.0094 27.6234 12.4108 25.9666L12.8681 24.0957C13.2695 22.439 12.2547 20.7597 10.6266 20.3539Z"
      fill="#010A68"/>
    <path
      d="M19.4371 22.5405L17.5859 22.0784C15.9466 21.6726 14.285 22.687 13.8835 24.3437L13.4263 26.2146C13.0248 27.8714 14.0285 29.5507 15.6678 29.9564L17.519 30.4185C19.1583 30.8242 20.8199 29.8099 21.2214 28.1531L21.6786 26.2822C22.0801 24.6368 21.0764 22.9462 19.4371 22.5405Z"
      fill="#010A68"/>
    <path
      d="M28.2574 24.738L26.4062 24.2759C24.7669 23.8701 23.1053 24.8845 22.7038 26.5412L22.2466 28.4121C21.8452 30.0689 22.8488 31.7482 24.4881 32.1539L26.3393 32.616C27.9786 33.0217 29.6402 32.0074 30.0417 30.3506L30.4989 28.4798C30.9004 26.823 29.8856 25.1437 28.2574 24.738Z"
      fill="#010A68"/>
    <path
      d="M37.068 26.9245L35.2168 26.4624C33.5775 26.0567 31.9158 27.071 31.5144 28.7278L31.0572 30.5987C30.6557 32.2554 31.6594 33.9347 33.2987 34.3404L35.1499 34.8025C36.7892 35.2083 38.4508 34.1939 38.8523 32.5372L39.3095 30.6663C39.7109 29.0095 38.7073 27.3302 37.068 26.9245Z"
      fill="#010A68"/>
    <path
      d="M45.8902 29.111L44.039 28.6489C42.3997 28.2432 40.7381 29.2575 40.3367 30.9143L39.8794 32.7852C39.478 34.4419 40.4816 36.1212 42.1209 36.527L43.9721 36.989C45.6114 37.3948 47.2731 36.3804 47.6745 34.7237L48.1317 32.8528C48.5332 31.196 47.5184 29.5167 45.8902 29.111Z"
      fill="#010A68"/>
    <path
      d="M6.09922 38.9501L4.24802 38.488C2.60871 38.0823 0.9471 39.0966 0.545637 40.7534L0.0884143 42.6243C-0.313049 44.281 0.69061 45.9603 2.32992 46.3661L4.18111 46.8282C5.82042 47.2226 7.49319 46.2083 7.89465 44.5515L8.35187 42.6806C8.74219 41.0352 7.73853 39.3559 6.09922 38.9501Z"
      fill="#010A68"/>
    <path
      d="M14.9195 41.1366L13.0683 40.6746C11.429 40.2688 9.76741 41.2832 9.36595 42.9399L8.90873 44.8108C8.50726 46.4676 9.51092 48.1469 11.1502 48.5526L13.0014 49.0147C14.6407 49.4204 16.3023 48.4061 16.7038 46.7493L17.161 44.8784C17.5625 43.2217 16.5477 41.5424 14.9195 41.1366Z"
      fill="#010A68"/>
    <path
      d="M23.7301 43.3232L21.8789 42.8611C20.2396 42.4553 18.578 43.4697 18.1765 45.1264L17.7193 46.9973C17.3178 48.6541 18.3215 50.3334 19.9608 50.7391L21.812 51.2012C23.4513 51.6069 25.1129 50.5926 25.5144 48.9359L25.9716 47.065C26.373 45.4195 25.3694 43.7289 23.7301 43.3232Z"
      fill="#010A68"/>
    <path
      d="M32.5504 45.5095L30.6992 45.0474C29.0599 44.6416 27.3983 45.656 26.9968 47.3127L26.5396 49.1836C26.1381 50.8404 27.1418 52.5197 28.7811 52.9254L30.6323 53.3875C32.2716 53.7932 33.9332 52.7789 34.3347 51.1221L34.7919 49.2512C35.1934 47.6058 34.1785 45.9152 32.5504 45.5095Z"
      fill="#010A68"/>
    <path
      d="M8.36289 29.652L6.51169 29.1899C4.87239 28.7842 3.21077 29.7985 2.80931 31.4553L2.35209 33.3262C1.95062 34.9829 2.95428 36.6622 4.59359 37.068L6.44478 37.5301C8.08409 37.9358 9.74571 36.9215 10.1472 35.2647L10.6044 33.3938C11.0059 31.7371 10.0022 30.0578 8.36289 29.652Z"
      fill="#010A68"/>
    <path
      d="M17.1832 31.8386L15.332 31.3765C13.6927 30.9707 12.0311 31.9851 11.6296 33.6418L11.1724 35.5127C10.7709 37.1695 11.7746 38.8488 13.4139 39.2545L15.2651 39.7166C16.9044 40.1223 18.566 39.108 18.9675 37.4512L19.4247 35.5803C19.8262 33.9349 18.8114 32.2443 17.1832 31.8386Z"
      fill="#010A68"/>
    <path
      d="M25.9937 34.0251L24.1426 33.563C22.5032 33.1573 20.8416 34.1716 20.4402 35.8283L19.9829 37.6992C19.5815 39.356 20.5851 41.0353 22.2245 41.441L24.0756 41.9031C25.715 42.3088 27.3766 41.2945 27.778 39.6378L28.2353 37.7669C28.6367 36.1214 27.6331 34.4308 25.9937 34.0251Z"
      fill="#010A68"/>
    <path
      d="M34.8043 36.2228L32.9531 35.7607C31.3138 35.355 29.6522 36.3693 29.2507 38.0261L28.7935 39.897C28.392 41.5538 29.3957 43.233 31.035 43.6388L32.8862 44.1009C34.5255 44.5066 36.1871 43.4923 36.5886 41.8355L37.0458 39.9646C37.4473 38.3079 36.4436 36.6286 34.8043 36.2228Z"
      fill="#010A68"/>
    <path
      d="M43.6246 38.4094L41.7734 37.9473C40.1341 37.5415 38.4725 38.5559 38.071 40.2126L37.6138 42.0835C37.2123 43.7403 38.216 45.4196 39.8553 45.8253L41.7065 46.2874C43.3347 46.6931 45.0074 45.6788 45.4089 44.022L45.8661 42.1511C46.2676 40.4944 45.2528 38.8151 43.6246 38.4094Z"
      fill="#010A68"/>
  </symbol>

  <symbol id="close" viewBox="0 0 14 17" fill="none">
    <path d="M1 2L13 15" stroke="#010A68" stroke-width="2" stroke-linecap="round" stroke-linejoin="round"/>
    <path d="M1 15L13 2.00003" stroke="#010A68" stroke-width="2" stroke-linecap="round" stroke-linejoin="round"/>
  </symbol>

  <symbol id="close-2" viewBox="0 0 23 24" fill="none">
    <path d="M2 2L21 22" stroke="white" stroke-width="3" stroke-linecap="round" stroke-linejoin="round"/>
    <path d="M2 22L21 2.00004" stroke="white" stroke-width="3" stroke-linecap="round" stroke-linejoin="round"/>
  </symbol>

  <symbol id="close-3" viewBox="0 0 14 17" fill="none">
    <path d="M1 2L13 15" stroke="#14142B" stroke-width="2" stroke-linecap="round" stroke-linejoin="round"/>
    <path d="M1 15L13 2.00003" stroke="#14142B" stroke-width="2" stroke-linecap="round" stroke-linejoin="round"/>
  </symbol>

  <symbol id="arrow" viewBox="0 0 25 16" fill="none">
    <path
      d="M0.292892 7.29289C-0.0976315 7.68342 -0.0976315 8.31658 0.292892 8.70711L6.65685 15.0711C7.04738 15.4616 7.68054 15.4616 8.07107 15.0711C8.46159 14.6805 8.46159 14.0474 8.07107 13.6569L2.41421 8L8.07107 2.34315C8.46159 1.95262 8.46159 1.31946 8.07107 0.928932C7.68054 0.538408 7.04738 0.538408 6.65685 0.928932L0.292892 7.29289ZM25 7L1 7V9L25 9V7Z"
      fill="#FF083D"/>
  </symbol>

  <symbol id="search" viewBox="0 0 22 22" fill="none">
    <path
      d="M10 19C14.9706 19 19 14.9706 19 10C19 5.02944 14.9706 1 10 1C5.02944 1 1 5.02944 1 10C1 14.9706 5.02944 19 10 19Z"
      stroke="#010A68" stroke-width="2" stroke-linecap="round" stroke-linejoin="round"/>
    <path d="M21 21L17 17" stroke="#010A68" stroke-width="2" stroke-linecap="round" stroke-linejoin="round"/>
  </symbol>

  <symbol id="minus" viewBox="0 0 14 6">
    <path d="M0.34 5.36V0.895999H13.84V5.36H0.34Z" fill="#FF083D"/>
  </symbol>

  <symbol id="plus" viewBox="0 0 18 17">
    <path d="M17.108 6.204V10.56H11.168V16.5H6.812V10.56H0.908V6.204H6.812V0.299998H11.168V6.204H17.108Z"
          fill="#010A68"/>
  </symbol>

  <symbol id="phone-2" viewBox="0 0 24 24">
    <path
      d="M22.6667 16.6667C21.0067 16.6667 19.4 16.4 17.9067 15.9067C17.4467 15.76 16.92 15.8667 16.5534 16.2334L13.6201 19.1734C9.84006 17.2534 6.75338 14.1667 4.83337 10.3934L7.76669 7.44669C8.13338 7.08 8.24 6.55337 8.09338 6.09337C7.60006 4.60006 7.33337 2.99337 7.33337 1.33337C7.33331 0.593312 6.74 0 6 0H1.33331C0.6 0 0 0.593313 0 1.33331C0 13.8533 10.1467 24 22.6667 24C23.4067 24 24 23.4067 24 22.6667V18C24 17.26 23.4067 16.6667 22.6667 16.6667Z"
      fill="#FF083D"/>
  </symbol>

  <symbol id="email" viewBox="0 0 24 24">
    <path
      d="M21.5 4H2.49998C1.122 4 0 5.122 0 6.50003V17.5C0 18.878 1.122 20 2.49998 20H21.5C22.878 20 24 18.878 24 17.5V6.50003C24 5.122 22.878 4 21.5 4ZM8.82 12.884L2.82 17.884C2.727 17.962 2.613 18.0001 2.49998 18.0001C2.35598 18.0001 2.214 17.9391 2.115 17.8201C1.938 17.608 1.96702 17.2921 2.17898 17.1151L8.17898 12.115C8.391 11.939 8.70698 11.968 8.88398 12.179C9.06098 12.392 9.03202 12.708 8.82 12.884ZM12 13.017C11.45 13.017 10.899 12.853 10.419 12.524L2.21798 6.913C1.98998 6.757 1.932 6.44598 2.08697 6.21798C2.24198 5.98998 2.55295 5.93097 2.78198 6.088L10.983 11.699C11.6 12.121 12.398 12.121 13.016 11.699L21.217 6.088C21.446 5.93298 21.757 5.98998 21.912 6.21798C22.068 6.44598 22.0101 6.757 21.7821 6.913L13.581 12.524C13.101 12.853 12.55 13.017 12 13.017ZM21.884 17.82C21.785 17.939 21.643 18 21.5 18C21.387 18 21.274 17.962 21.18 17.884L15.18 12.884C14.968 12.707 14.939 12.392 15.116 12.179C15.293 11.968 15.608 11.939 15.821 12.115L21.821 17.115C22.032 17.292 22.061 17.608 21.884 17.82Z"
      fill="#FF083D"/>
  </symbol>
</svg>
